<svg version="1.1" xmlns="http://www.w3.org/2000/svg" width="195.8" height="30" viewBox="0 0 979 150" class="icon_icon__1um2d virtIcon d-none d-md-block undefined vmsNav_logo__1VT7v"><path fill="#3EAE49" d="m42.83999,7.54513c20,-9.71 44.26,-9.75 64.35,-0.27c4.39,10.7 5.71,22.35 6.18,33.82c-24.48,-10.93 -53.45,-9.95 -77.71,1.08c0.66,-11.82 2.85,-23.59 7.18,-34.63z"></path><path fill="#3E66AF" d="m116.35999,12.33513c18.84,12.42 31.51,33.6 33.62,56.06c-8.55,-9.12 -18.15,-17.37 -29.04,-23.58c0,-10.98 -1.62,-21.92 -4.58,-32.48z"></path><path fill="#F8D10C" d="m0.63999,68.10513c2.13,-21.67 13.99,-42.27 32.03,-54.56c-2.78,10.63 -4.57,21.56 -4.72,32.57c-10.21,5.81 -19.28,13.44 -27.31,21.99z"></path><path fill="#FFFFFF" d="m74.64999,115.75513c7.68,-10.14 15.06,-19.06 19.09,-31.17c4.39,-12.6 5.18,-25.44 4.28,-38.65c7.68,1.76 9.66,3.34 15.54,5.68c-5.02,23.77 -13.59,46.08 -32.78,60.17c-2.07,1.76 -3.89,3.64 -6.13,5.16"></path><path fill="#81499D" d="m120.11999,54.90513c5.42,2.74 10.71,5.82 15.34,9.78c5.34,4.59 9.95,9.95 14.46,15.33c-0.99,17.97 -9.11,35.26 -21.75,47.97c-1.91,1.8 -3.65,3.9 -6,5.16c-14.12,-0.34 -28.2,-4.41 -40.28,-11.77c21.69,-15.19 35.12,-40.43 38.23,-66.47z"></path><path fill="#F26C56" d="m0.58999,80.64513c7.04,-10.5 16.92,-18.79 28.07,-24.65c2.94,26.1 17.77,50.27 38.96,65.61c-12.34,6.45 -26.01,10.1 -39.83,11.47c-15.49,-12.99 -25.66,-32.22 -27.2,-52.43z"></path><path fill="#EC2227" d="m37.40999,139.69513c12.95,-2.67 25.75,-6.68 37.19,-13.41c11.6,6.89 24.48,11.52 37.75,13.91c-22.77,12.95 -52.36,12.85 -74.94,-0.5z"></path><path fill="#FFFFFF" d="m74.64999,115.75513c-7.68,-10.14 -15.06,-19.06 -19.09,-31.17c-4.39,-12.6 -5.18,-25.44 -4.28,-38.65c-7.68,1.76 -9.66,3.34 -15.54,5.68c5.02,23.77 13.59,46.08 32.78,60.17c2.07,1.76 3.89,3.64 6.13,5.16"></path><path fill="#FFFFFF" d="m265.22999,36.37513l-42.84,89.99l-0.99,0l-42.72,-89.99l18.96,0l24.25,52.2l24.25,-52.2l19.09,0z"></path><path fill="#FFFFFF" d="m302.15999,126.37513l-17.24,0l0,-89.99l17.24,0l0,89.99z"></path><path fill="#FFFFFF" d="m348.31999,126.37513l-17.23,0l0,-90.12l40.94,0c4.61,0 8.82,0.76 12.64,2.28c3.82,1.52 7.09,3.65 9.8,6.4c2.71,2.75 4.83,6.03 6.35,9.85c1.52,3.82 2.28,7.98 2.28,12.5c0,6.81 -1.71,12.76 -5.12,17.85c-3.41,5.09 -7.96,8.74 -13.63,10.96c7.57,10.01 15.05,20.11 22.44,30.29l-20.56,0c-3.6,-4.68 -7.12,-9.4 -10.55,-14.16c-3.43,-4.76 -6.87,-9.6 -10.31,-14.53l-17.06,0l0,28.68l0.01,0zm0,-43.95l23.68,0c1.56,0 3.17,-0.31 4.85,-0.92c1.68,-0.62 3.17,-1.56 4.48,-2.83c1.31,-1.27 2.39,-2.85 3.25,-4.74c0.86,-1.89 1.29,-4.1 1.29,-6.65c0,-1.31 -0.16,-2.87 -0.49,-4.68c-0.33,-1.8 -0.98,-3.53 -1.96,-5.17c-0.98,-1.64 -2.37,-3.04 -4.17,-4.19c-1.8,-1.15 -4.21,-1.72 -7.24,-1.72l-23.68,0l0,30.9l-0.01,0z"></path><path fill="#FFFFFF" d="m486.08999,51.52513l-25.73,0l0,74.85l-17.24,0l0,-74.85l-25.85,0l0,-15.27l68.82,0l0,15.27z"></path><path fill="#FFFFFF" d="m543.32999,127.97513c-5.83,0 -11.12,-0.9 -15.88,-2.71c-4.76,-1.8 -8.82,-4.35 -12.19,-7.63c-3.37,-3.28 -5.97,-7.26 -7.82,-11.94c-1.85,-4.68 -2.77,-9.89 -2.77,-15.63l0,-53.68l17.23,0l0,53.59c0,4.51 0.74,8.23 2.22,11.19c1.48,2.95 3.3,5.29 5.48,7.01c2.17,1.72 4.51,2.91 7.02,3.56c2.5,0.66 4.74,0.98 6.71,0.98c1.97,0 4.21,-0.33 6.71,-0.98c2.5,-0.65 4.84,-1.84 7.02,-3.56c2.17,-1.72 4,-4.06 5.48,-7.01c1.48,-2.95 2.22,-6.68 2.22,-11.19l0,-53.59l17.23,0l0,53.68c0,5.75 -0.9,10.96 -2.71,15.63c-1.81,4.68 -4.39,8.66 -7.76,11.94c-3.37,3.28 -7.43,5.83 -12.19,7.63c-4.76,1.81 -10.09,2.71 -16,2.71z"></path><path fill="#FFFFFF" d="m593.55999,126.37513l46.04,-89.99l1.72,0l46.04,89.99l-18.71,0l-7.02,-14.16l-42.47,0l-6.9,14.16l-18.7,0zm33.98,-29.18l25.73,0l-12.8,-27.21l-12.93,27.21z"></path><path fill="#FFFFFF" d="m781.18999,126.37513l-59.22,-53.55l0,53.55l-17.23,0l0,-89.99l1.85,0l59.22,54.42l0,-54.42l17.23,0l0,89.99l-1.85,0z"></path><path fill="#FFFFFF" d="m891.97999,104.21513c-1.97,3.61 -4.39,6.88 -7.26,9.79c-2.87,2.92 -6.05,5.42 -9.54,7.51c-3.49,2.09 -7.26,3.71 -11.33,4.86c-4.06,1.15 -8.27,1.72 -12.62,1.72c-6.4,0 -12.44,-1.23 -18.1,-3.69c-5.66,-2.46 -10.61,-5.81 -14.83,-10.03c-4.23,-4.23 -7.57,-9.17 -10.03,-14.83c-2.46,-5.66 -3.69,-11.7 -3.69,-18.1c0,-6.4 1.23,-12.43 3.69,-18.1c2.46,-5.66 5.81,-10.61 10.03,-14.83c4.23,-4.23 9.17,-7.57 14.83,-10.03c5.66,-2.46 11.7,-3.69 18.1,-3.69c4.35,0 8.56,0.58 12.62,1.72c4.06,1.15 7.84,2.77 11.33,4.86c3.49,2.09 6.67,4.6 9.54,7.51c2.87,2.91 5.29,6.14 7.26,9.66l-16.13,6.52c-1.32,-1.97 -2.85,-3.82 -4.62,-5.54c-1.77,-1.72 -3.72,-3.24 -5.85,-4.56c-2.13,-1.31 -4.39,-2.34 -6.77,-3.08c-2.38,-0.74 -4.84,-1.11 -7.39,-1.11c-4.11,0 -7.94,0.84 -11.51,2.52c-3.57,1.68 -6.67,3.92 -9.29,6.71c-2.63,2.79 -4.72,6.05 -6.28,9.79c-1.56,3.74 -2.34,7.61 -2.34,11.63c0,4.11 0.78,8 2.34,11.7c1.56,3.69 3.65,6.94 6.28,9.73c2.63,2.79 5.72,5.03 9.29,6.71c3.57,1.68 7.41,2.52 11.51,2.52c2.54,0 5.01,-0.37 7.39,-1.11c2.38,-0.74 4.64,-1.76 6.77,-3.08c2.13,-1.31 4.08,-2.85 5.85,-4.62c1.76,-1.76 3.3,-3.63 4.62,-5.6l16.13,6.54z"></path><path fill="#FFFFFF" d="m929.27999,51.52513l0,22.53l43.58,0l0,15.63l-43.58,0l0,21.18l49.12,0l0,15.51l-66.36,0l0,-90.12l66.36,0l0,15.27l-49.12,0z"></path></svg>
